<svg fill="#1f2937" xmlns="http://www.w3.org/2000/svg" data-name="Layer 1" viewBox="0 0 48 60" x="0px" y="0px"><path d="M6,8A2,2,0,1,1,8,6,2,2,0,0,1,6,8Zm0,9a1,1,0,1,0,1,1A1,1,0,0,0,6,17ZM6,29a1,1,0,1,0,1,1A1,1,0,0,0,6,29ZM8,42a2,2,0,1,0-2,2A2,2,0,0,0,8,42ZM18,4a2,2,0,1,0,2,2A2,2,0,0,0,18,4Zm1,14a1,1,0,1,0-1,1A1,1,0,0,0,19,18Zm1,12a2,2,0,1,0-2,2A2,2,0,0,0,20,30ZM17,42a1,1,0,1,0,1-1A1,1,0,0,0,17,42ZM31,6a1,1,0,1,0-1,1A1,1,0,0,0,31,6ZM30,16a2,2,0,1,0,2,2A2,2,0,0,0,30,16Zm1,14a1,1,0,1,0-1,1A1,1,0,0,0,31,30ZM28,42a2,2,0,1,0,2-2A2,2,0,0,0,28,42ZM42,4a2,2,0,1,0,2,2A2,2,0,0,0,42,4Zm1,14a1,1,0,1,0-1,1A1,1,0,0,0,43,18ZM42,28a2,2,0,1,0,2,2A2,2,0,0,0,42,28Zm0,13a1,1,0,1,0,1,1A1,1,0,0,0,42,41Z"/></svg>
